# xmcd CD database file
#
# Track frame offsets:
#	151
#	12927
#	33497
#	48450
#	63702
#	75853
#	99866
#	107363
#	122032
#	134624
#	148340
#	161271
#	175382
#	189758
#	202594
#	217048
#
# Disc length: 3099 seconds
#
# Revision: 0
# Processed by: cddbd v1.5.1PL2 Copyright (c) Steve Scherf et al.
# Submitted via: CDex 1.51
#
DISCID=d20c1910
DTITLE=Boswell Sisters - Vocal Jazz
DYEAR=2001
DGENRE=Jazz
TTITLE0=Lullaby Of Broadway
TTITLE1=Star Dust
TTITLE2=Put That Sun Back In The Sky
TTITLE3=Was That The Human Thing To Do
TTITLE4=River Star 'Way Form My Door
TTITLE5=Lawd, You Made The Night Too Long
TTITLE6=Strange As It Seems
TTITLE7=The Old Man Or The Mountain
TTITLE8=We Just Couldn't Say Goodbye
TTITLE9=Sleep, Come On And Take Me
TTITLE10=Down Among The Sheltering Palms
TTITLE11=42nd Street
TTITLE12=The Darktown Strutter's Ball
TTITLE13=If I Had A Million Dollars
TTITLE14=Dinah
TTITLE15=Fare The Well, Annabelle
EXTD=YEAR: 2001
EXTT0=
EXTT1=
EXTT2=
EXTT3=
EXTT4=
EXTT5=
EXTT6=
EXTT7=
EXTT8=
EXTT9=
EXTT10=
EXTT11=
EXTT12=
EXTT13=
EXTT14=
EXTT15=
PLAYORDER=
